<?xml version="1.0" encoding="UTF-8"?>
<svg id="Logo" xmlns="http://www.w3.org/2000/svg" width="32.26cm" height="5.03cm" viewBox="0 0 914.51 142.66">
  <defs>
    <style>
      .cls-1 {
        fill: #00c1ff;
      }

      .cls-2 {
        fill: #034ea2;
      }
    </style>
  </defs>
  <g>
    <path class="cls-1" d="M34.29,23.78c-5.81,0-10.53,4.73-10.53,10.57v26.42c0,5.84,4.71,10.57,10.53,10.57h15.79c2.91,0,5.26,2.37,5.26,5.28v5.28c0,2.92,2.36,5.28,5.26,5.28h5.26c2.91,0,5.26-2.37,5.26-5.28v-10.57h0v-10.57c0-2.92-2.36-5.28-5.26-5.28h-21.06c-2.91,0-5.26-2.37-5.26-5.28v-5.28c0-2.92,2.36-5.28,5.26-5.28H110.09c1.76,0,3.4-.88,4.38-2.35l3.51-5.28c2.33-3.51-.18-8.22-4.38-8.22H34.29Z"/>
    <path class="cls-1" d="M81.72,103.04H48.38c-1.77,0-3.43,.88-4.41,2.35l-3.54,5.28c-2.35,3.51,.18,8.22,4.41,8.22h47.49c5.86,0,10.61-4.73,10.61-10.57V60.77c0-2.92-2.37-5.28-5.3-5.28h-5.3c-2.93,0-5.3,2.37-5.3,5.28v36.99c0,2.92-2.37,5.28-5.3,5.28h-.02Z"/>
  </g>
  <g>
    <path class="cls-2" d="M168.2,58.14v1.53c0,1.98-1.09,2.97-3.27,2.97h-8.81v52.56c0,1.89-1.19,2.97-3.27,2.97h-2.77c-2.08,0-3.27-1.08-3.27-2.97V62.64h-8.81c-2.08,0-3.27-.99-3.27-2.97v-1.53c0-1.89,1.19-2.97,3.27-2.97h26.93c2.18,0,3.27,1.08,3.27,2.97Z"/>
    <path class="cls-2" d="M207.2,118.17h-2.77c-1.88,0-3.07-.72-3.66-2.43l-8.71-23.4h-8.12v22.86c0,1.89-1.19,2.97-3.27,2.97h-2.77c-2.18,0-3.27-1.08-3.27-2.97V58.14c0-1.89,1.09-2.97,3.27-2.97h14.06c10.49,0,16.83,4.05,16.83,13.32v10.53c0,6.3-2.97,10.17-8.12,12.06l9.31,23.67c.69,1.98-.4,3.42-2.77,3.42Zm-23.26-33.21h7.62c5.15,0,7.92-1.89,7.92-7.47v-7.38c0-5.58-2.77-7.47-7.92-7.47h-7.62v22.32Z"/>
    <path class="cls-2" d="M250.76,118.17h-2.87c-1.98,0-3.17-.9-3.56-2.7l-2.38-12.15h-14.95l-2.38,12.15c-.3,1.8-1.58,2.7-3.46,2.7h-2.47c-2.18,0-3.27-1.17-2.87-3.24l12.47-57.06c.4-1.8,1.68-2.7,3.56-2.7h5.54c1.88,0,3.17,.9,3.56,2.7l12.67,57.06c.5,2.07-.69,3.24-2.87,3.24Zm-10.2-21.96l-6.04-30.42-6.04,30.42h12.08Z"/>
    <path class="cls-2" d="M266.6,118.17h-2.08c-2.18,0-3.27-1.08-3.27-2.97V58.14c0-1.89,1.09-2.97,3.27-2.97h3.27c1.88,0,3.17,.81,3.76,2.43l16.43,40.95V58.14c0-1.89,1.19-2.97,3.27-2.97h2.08c2.18,0,3.27,1.08,3.27,2.97v57.06c0,1.89-1.09,2.97-3.27,2.97h-2.87c-1.88,0-3.07-.81-3.66-2.43l-16.93-42.39v41.85c0,1.89-1.19,2.97-3.27,2.97Z"/>
    <path class="cls-2" d="M336.1,77.4h-2.57c-2.18,0-3.27-1.08-3.27-2.97v-5.58c0-5.04-2.67-7.02-7.42-7.02s-7.42,1.98-7.42,7.02v4.32c0,3.78,1.49,5.13,5.45,7.2l9.01,4.5c5.94,3.06,9.7,6.12,9.7,12.15v8.73c0,9.45-6.04,13.14-16.53,13.14h-.2c-10.49,0-16.53-3.6-16.53-13.14v-7.74c0-1.89,1.09-2.97,3.27-2.97h2.57c2.18,0,3.27,1.08,3.27,2.97v6.3c0,4.95,2.67,7.2,7.52,7.2s7.52-2.25,7.52-7.2v-4.95c0-3.78-1.48-5.4-5.54-7.47l-8.91-4.5c-6.34-3.33-9.7-6.03-9.7-12.06v-7.92c0-9.09,6.93-12.96,16.43-12.96h.2c9.5,0,16.43,3.87,16.43,12.96v7.02c0,1.89-1.09,2.97-3.27,2.97Z"/>
    <path class="cls-2" d="M379.95,118.17h-2.87c-1.98,0-3.17-.9-3.56-2.7l-2.38-12.15h-14.95l-2.38,12.15c-.3,1.8-1.58,2.7-3.46,2.7h-2.47c-2.18,0-3.27-1.17-2.87-3.24l12.47-57.06c.4-1.8,1.68-2.7,3.56-2.7h5.54c1.88,0,3.17,.9,3.56,2.7l12.67,57.06c.5,2.07-.69,3.24-2.87,3.24Zm-10.2-21.96l-6.04-30.42-6.04,30.42h12.08Z"/>
    <path class="cls-2" d="M423.32,95.76v9.81c0,9.45-6.34,13.32-16.83,13.32h-.2c-10.49,0-16.83-3.78-16.83-13.32v-37.8c0-9.09,6.34-13.32,16.83-13.32h.2c10.49,0,16.83,4.23,16.83,13.32v8.28c0,1.89-1.09,2.97-3.27,2.97h-2.77c-2.08,0-3.27-1.08-3.27-2.97v-6.66c0-5.49-2.57-7.47-7.62-7.47s-7.62,1.98-7.62,7.47v34.56c0,5.49,2.57,7.47,7.62,7.47s7.62-1.98,7.62-7.47v-8.19c0-1.89,1.19-2.97,3.27-2.97h2.77c2.18,0,3.27,1.08,3.27,2.97Z"/>
    <path class="cls-2" d="M462.02,58.14v1.53c0,1.98-1.09,2.97-3.27,2.97h-8.81v52.56c0,1.89-1.19,2.97-3.27,2.97h-2.77c-2.08,0-3.27-1.08-3.27-2.97V62.64h-8.81c-2.08,0-3.27-.99-3.27-2.97v-1.53c0-1.89,1.19-2.97,3.27-2.97h26.93c2.18,0,3.27,1.08,3.27,2.97Z"/>
    <path class="cls-2" d="M474.89,118.17h-2.77c-2.18,0-3.27-1.08-3.27-2.97V58.14c0-1.89,1.09-2.97,3.27-2.97h2.77c2.08,0,3.27,1.08,3.27,2.97v57.06c0,1.89-1.19,2.97-3.27,2.97Z"/>
    <path class="cls-2" d="M506.08,54.45h.79c10.49,0,16.83,4.05,16.83,13.32v37.8c0,9.27-6.34,13.32-16.83,13.32h-.79c-10.49,0-16.83-4.05-16.83-13.32v-37.8c0-9.36,6.34-13.32,16.83-13.32Zm.4,56.97c5.15,0,7.92-1.89,7.92-7.47v-34.56c0-5.58-2.77-7.47-7.92-7.47s-7.92,1.89-7.92,7.47v34.56c0,5.58,2.77,7.47,7.92,7.47Z"/>
    <path class="cls-2" d="M539.74,118.17h-2.08c-2.18,0-3.27-1.08-3.27-2.97V58.14c0-1.89,1.09-2.97,3.27-2.97h3.27c1.88,0,3.17,.81,3.76,2.43l16.43,40.95V58.14c0-1.89,1.19-2.97,3.27-2.97h2.08c2.18,0,3.27,1.08,3.27,2.97v57.06c0,1.89-1.09,2.97-3.27,2.97h-2.87c-1.88,0-3.07-.81-3.66-2.43l-16.93-42.39v41.85c0,1.89-1.19,2.97-3.27,2.97Z"/>
  </g>
  <g>
    <path class="cls-2" d="M596.13,102.33V58.05c0-2.34,1.39-3.6,3.96-3.6h3.56c2.57,0,3.96,1.26,3.96,3.6v46.08c0,9.72-7.13,13.32-17.62,13.32h-.4c-2.57,0-3.96-1.26-3.96-3.6v-2.16c0-2.34,1.39-3.6,3.96-3.6h.2c3.76,0,6.34-1.26,6.34-5.76Z"/>
    <path class="cls-2" d="M651.96,58.05v46.8c0,9.72-6.73,13.32-17.23,13.32h-.4c-10.49,0-17.23-3.51-17.23-13.32V58.05c0-2.34,1.39-3.6,3.96-3.6h3.56c2.57,0,3.96,1.26,3.96,3.6v45.18c0,4.5,2.18,5.76,5.94,5.76s5.94-1.26,5.94-5.76V58.05c0-2.34,1.39-3.6,3.96-3.6h3.56c2.57,0,3.96,1.26,3.96,3.6Z"/>
    <path class="cls-2" d="M668.2,117.45h-2.57c-2.57,0-3.96-1.26-3.96-3.6V58.05c0-2.34,1.39-3.6,3.96-3.6h4.16c2.28,0,3.76,.99,4.46,2.97l13.46,36V58.05c0-2.34,1.39-3.6,3.96-3.6h2.57c2.57,0,3.96,1.26,3.96,3.6v55.8c0,2.34-1.39,3.6-3.96,3.6h-3.56c-2.28,0-3.76-.99-4.46-2.97l-14.06-37.98v37.35c0,2.34-1.39,3.6-3.96,3.6Z"/>
    <path class="cls-2" d="M742.74,95.4v9.45c0,9.72-6.93,13.32-17.42,13.32h-.2c-10.49,0-17.42-3.51-17.42-13.32v-37.8c0-9.36,6.93-13.32,17.42-13.32h.2c10.49,0,17.42,3.96,17.42,13.32v7.92c0,2.34-1.38,3.6-3.96,3.6h-3.56c-2.57,0-3.96-1.26-3.96-3.6v-6.3c0-4.41-2.38-5.76-6.04-5.76s-6.04,1.35-6.04,5.76v34.56c0,4.41,2.38,5.76,6.04,5.76s6.04-1.35,6.04-5.76v-7.83c0-2.34,1.39-3.6,3.96-3.6h3.56c2.57,0,3.96,1.26,3.96,3.6Z"/>
    <path class="cls-2" d="M781.75,58.05v1.98c0,2.34-1.39,3.6-3.96,3.6h-7.62v50.22c0,2.34-1.39,3.6-3.96,3.6h-3.56c-2.57,0-3.96-1.26-3.96-3.6V63.63h-7.62c-2.57,0-3.96-1.26-3.96-3.6v-1.98c0-2.34,1.39-3.6,3.96-3.6h26.73c2.57,0,3.96,1.26,3.96,3.6Z"/>
    <path class="cls-2" d="M795.22,117.45h-3.56c-2.57,0-3.96-1.26-3.96-3.6V58.05c0-2.34,1.39-3.6,3.96-3.6h3.56c2.57,0,3.96,1.26,3.96,3.6v55.8c0,2.34-1.39,3.6-3.96,3.6Z"/>
    <path class="cls-2" d="M826.5,53.73h.79c10.49,0,17.42,3.78,17.42,13.32v37.8c0,9.54-6.93,13.32-17.42,13.32h-.79c-10.49,0-17.42-3.78-17.42-13.32v-37.8c0-9.63,6.93-13.32,17.42-13.32Zm.4,55.26c3.76,0,6.34-1.26,6.34-5.76v-34.56c0-4.5-2.57-5.76-6.34-5.76s-6.34,1.26-6.34,5.76v34.56c0,4.5,2.57,5.76,6.34,5.76Z"/>
    <path class="cls-2" d="M860.75,117.45h-2.57c-2.57,0-3.96-1.26-3.96-3.6V58.05c0-2.34,1.38-3.6,3.96-3.6h4.16c2.28,0,3.76,.99,4.46,2.97l13.46,36V58.05c0-2.34,1.39-3.6,3.96-3.6h2.57c2.57,0,3.96,1.26,3.96,3.6v55.8c0,2.34-1.38,3.6-3.96,3.6h-3.56c-2.28,0-3.76-.99-4.46-2.97l-14.06-37.98v37.35c0,2.34-1.38,3.6-3.96,3.6Z"/>
  </g>
</svg>