<?xml version="1.0" encoding="UTF-8"?>
<svg id="Logo" xmlns="http://www.w3.org/2000/svg" width="8.1cm" height="8.1cm" viewBox="0 0 229.61 229.61">
  <defs>
    <style>
      .cls-1 {
        fill: #00c1ff;
      }
    </style>
  </defs>
  <path class="cls-1" d="M55.21,38.27c-9.36,0-16.94,7.61-16.94,17.01v42.52c0,9.39,7.59,17.01,16.94,17.01h25.42c4.68,0,8.47,3.81,8.47,8.5v8.5c0,4.7,3.79,8.5,8.47,8.5h8.47c4.68,0,8.47-3.81,8.47-8.5v-17.01h0v-17.01c0-4.7-3.79-8.5-8.47-8.5h-33.89c-4.68,0-8.47-3.81-8.47-8.5v-8.5c0-4.7,3.79-8.5,8.47-8.5h105.05c2.83,0,5.48-1.42,7.05-3.79l5.65-8.5c3.75-5.65-.28-13.22-7.05-13.22H55.21Z"/>
  <path class="cls-1" d="M131.56,165.83h-53.67c-2.85,0-5.52,1.42-7.1,3.79l-5.69,8.5c-3.78,5.65,.28,13.22,7.1,13.22h76.43c9.43,0,17.07-7.61,17.07-17.01V97.8c0-4.7-3.82-8.5-8.54-8.5h-8.54c-4.71,0-8.54,3.81-8.54,8.5v59.53c0,4.7-3.82,8.5-8.54,8.5Z"/>
</svg>